{"asset":{"version":"2.0","generator":"babylon.js glTF exporter for maya 2018 v1.2.16","copyright":"2017 (c) BabylonJS"},"extensionsUsed":["KHR_lights"],"scene":0,"scenes":[{"nodes":[0],"extensions":{"KHR_lights":{"light":0}}}],"nodes":[{"mesh":0,"translation":[0,0,0],"rotation":[0,0,0,1],"scale":[1,1,1],"name":"golem"}],"meshes":[{"primitives":[{"attributes":{"POSITION":1,"NORMAL":2,"TANGENT":3,"TEXCOORD_0":4},"indices":0,"mode":4,"material":0}],"name":"golem"}],"accessors":[{"bufferView":0,"componentType":5123,"count":816,"type":"SCALAR","name":"accessorIndices"},{"bufferView":1,"componentType":5126,"count":538,"max":[2.07535362,1.350502,0.662027],"min":[-2.16435814,0,-0.5],"type":"VEC3","name":"accessorPositions"},{"bufferView":1,"byteOffset":6456,"componentType":5126,"count":538,"type":"VEC3","name":"accessorNormals"},{"bufferView":2,"componentType":5126,"count":538,"type":"VEC4","name":"accessorTangents"},{"bufferView":3,"componentType":5126,"count":538,"type":"VEC2","name":"accessorUVs"}],"bufferViews":[{"buffer":0,"byteLength":1632,"name":"bufferViewScalar"},{"buffer":0,"byteOffset":1632,"byteLength":12912,"byteStride":12,"name":"bufferViewFloatVec3"},{"buffer":0,"byteOffset":14544,"byteLength":8608,"byteStride":16,"name":"bufferViewFloatVec4"},{"buffer":0,"byteOffset":23152,"byteLength":4304,"byteStride":8,"name":"bufferViewFloatVec2"}],"buffers":[{"uri":"data:application/octet-stream;base64,","byteLength":27456}],"materials":[{"pbrMetallicRoughness":{"baseColorFactor":[1,1,1,1],"baseColorTexture":{"index":0,"texCoord":0},"metallicFactor":0.4791667,"roughnessFactor":0.3},"emissiveFactor":[0,0,0],"alphaMode":"OPAQUE","name":"blinn2"}],"textures":[{"sampler":0,"source":0,"name":"blinn2_baseColor.jpg"}],"images":[{"uri":"data:application/octet-stream;base64,"}],"samplers":[{"magFilter":9729,"minFilter":9987,"wrapS":10497,"wrapT":10497}],"extensions":{"KHR_lights":{"lights":[{"color":[1,1,1],"intensity":1,"type":"ambient"}]}}}